<?xml version="1.0" encoding="UTF-8" standalone="no"?>
<svg
   xmlns:dc="http://purl.org/dc/elements/1.1/"
   xmlns:cc="http://creativecommons.org/ns#"
   xmlns:rdf="http://www.w3.org/1999/02/22-rdf-syntax-ns#"
   xmlns:svg="http://www.w3.org/2000/svg"
   xmlns="http://www.w3.org/2000/svg"
   xmlns:sodipodi="http://sodipodi.sourceforge.net/DTD/sodipodi-0.dtd"
   xmlns:inkscape="http://www.inkscape.org/namespaces/inkscape"
   width="80mm"
   height="80mm"
   viewBox="0 0 80 80"
   version="1.1"
   id="svg8"
   inkscape:version="1.0.1 (3bc2e813f5, 2020-09-07, custom)"
   sodipodi:docname="logo_white.svg">
  <defs
     id="defs2" />
  <sodipodi:namedview
     id="base"
     pagecolor="#ffffff"
     bordercolor="#666666"
     borderopacity="1.0"
     inkscape:pageopacity="0.0"
     inkscape:pageshadow="2"
     inkscape:zoom="1"
     inkscape:cx="50.46386"
     inkscape:cy="215.6064"
     inkscape:document-units="mm"
     inkscape:current-layer="layer2"
     inkscape:document-rotation="0"
     showgrid="false"
     inkscape:window-width="1912"
     inkscape:window-height="1026"
     inkscape:window-x="0"
     inkscape:window-y="26"
     inkscape:window-maximized="0" />
  <metadata
     id="metadata5">
    <rdf:RDF>
      <cc:Work
         rdf:about="">
        <dc:format>image/svg+xml</dc:format>
        <dc:type
           rdf:resource="http://purl.org/dc/dcmitype/StillImage" />
        <dc:title></dc:title>
      </cc:Work>
    </rdf:RDF>
  </metadata>
  <g
     inkscape:groupmode="layer"
     id="layer2"
     inkscape:label="Background"
     style="mix-blend-mode:normal">
    <rect
       style="fill:#ffffff;stroke-width:0.264583;stop-color:#000000"
       id="rect107"
       width="80"
       height="80"
       x="0"
       y="4.4408921e-16" />
  </g>
  <g
     inkscape:label="Layer 1"
     inkscape:groupmode="layer"
     id="layer1">
    <path
       id="rect837"
       style="opacity:1;fill:#000000;stroke-width:0.714282;stop-color:#000000"
       d="M 54.693359 37.794922 C 44.224068 37.794922 35.794922 46.224068 35.794922 56.693359 L 35.794922 113.38672 C 35.794922 123.85601 44.224068 132.2832 54.693359 132.2832 L 111.38672 132.2832 C 121.85601 132.2832 130.2832 123.85601 130.2832 113.38672 L 130.2832 56.693359 C 130.2832 46.224068 121.85601 37.794922 111.38672 37.794922 L 54.693359 37.794922 z M 73.589844 56.693359 L 92.488281 56.693359 C 102.95757 56.693359 111.38672 65.120552 111.38672 75.589844 L 111.38672 94.488281 C 111.38672 104.95757 102.95757 113.38672 92.488281 113.38672 L 73.589844 113.38672 C 63.120552 113.38672 54.693359 104.95757 54.693359 94.488281 L 54.693359 75.589844 C 54.693359 65.120552 63.120552 56.693359 73.589844 56.693359 z "
       transform="scale(0.26458333)" />
    <path
       id="rect837-2"
       style="opacity:1;fill:#000000;stroke-width:0.714282;stop-color:#000000"
       d="M 186.97656 37.794922 C 176.50727 37.794922 168.07812 46.224068 168.07812 56.693359 L 168.07812 113.38672 C 168.07813 123.85601 176.50727 132.2832 186.97656 132.2832 L 243.66992 132.2832 C 254.13921 132.2832 262.56641 123.85601 262.56641 113.38672 L 262.56641 56.693359 C 262.56641 46.224068 254.13921 37.794922 243.66992 37.794922 L 186.97656 37.794922 z M 205.87305 56.693359 L 224.77148 56.693359 C 235.24078 56.693359 243.66992 65.120552 243.66992 75.589844 L 243.66992 94.488281 C 243.66992 104.95757 235.24078 113.38672 224.77148 113.38672 L 205.87305 113.38672 C 195.40376 113.38672 186.97656 104.95757 186.97656 94.488281 L 186.97656 75.589844 C 186.97656 65.120552 195.40376 56.693359 205.87305 56.693359 z "
       transform="scale(0.26458333)" />
    <path
       id="rect837-37"
       style="opacity:1;fill:#000000;stroke-width:0.714282;stop-color:#000000"
       d="M 54.693359 170.07812 C 44.224068 170.07813 35.794922 178.50727 35.794922 188.97656 L 35.794922 245.66992 C 35.794922 256.13921 44.224068 264.56641 54.693359 264.56641 L 111.38672 264.56641 C 121.85601 264.56641 130.2832 256.13921 130.2832 245.66992 L 130.2832 188.97656 C 130.2832 178.50727 121.85601 170.07812 111.38672 170.07812 L 54.693359 170.07812 z M 73.589844 188.97656 L 92.488281 188.97656 C 102.95757 188.97656 111.38672 197.40376 111.38672 207.87305 L 111.38672 226.77148 C 111.38672 237.24078 102.95757 245.66992 92.488281 245.66992 L 73.589844 245.66992 C 63.120552 245.66992 54.693359 237.24078 54.693359 226.77148 L 54.693359 207.87305 C 54.693359 197.40376 63.120552 188.97656 73.589844 188.97656 z "
       transform="scale(0.26458333)" />
    <rect
       style="fill:#000000;stroke-width:0.264583;stop-color:#000000"
       id="rect86"
       width="2"
       height="15"
       x="4"
       y="4"
       ry="1" />
    <rect
       style="fill:#000000;stroke-width:0.264583;stop-color:#000000"
       id="rect86-3"
       width="2"
       height="15"
       x="4"
       y="61"
       ry="1" />
    <rect
       style="fill:#000000;stroke-width:0.264583;stop-color:#000000"
       id="rect86-3-6"
       width="2"
       height="15"
       x="74"
       y="4"
       ry="1" />
    <rect
       style="fill:#000000;stroke-width:0.264583;stop-color:#000000"
       id="rect86-3-6-7"
       width="2"
       height="15"
       x="74"
       y="61"
       ry="1" />
    <rect
       style="fill:#000000;stroke-width:0.264583;stop-color:#000000"
       id="rect86-5"
       width="15"
       x="23.572289"
       y="-6.0053964"
       ry="1" />
    <rect
       style="fill:#000000;stroke-width:0.264583;stop-color:#000000"
       id="rect86-35"
       width="15"
       height="2"
       x="4"
       y="4"
       ry="1" />
    <rect
       style="fill:#000000;stroke-width:0.264583;stop-color:#000000"
       id="rect86-35-6"
       width="15"
       height="2"
       x="61"
       y="4"
       ry="1" />
    <rect
       style="fill:#000000;stroke-width:0.264583;stop-color:#000000"
       id="rect86-35-6-2"
       width="15"
       height="2"
       x="61"
       y="74"
       ry="1" />
    <rect
       style="fill:#000000;stroke-width:0.264583;stop-color:#000000"
       id="rect86-35-6-2-9"
       width="15"
       height="2"
       x="4"
       y="74"
       ry="1" />
    <rect
       style="fill:#000000;stroke-width:0.277411;stop-color:#000000"
       id="rect344"
       width="17.822674"
       height="6.3263574"
       x="33.513332"
       y="-3.3403211"
       ry="2.5105059"
       transform="matrix(0.70414272,0.71005847,-0.71689593,0.6971802,0,0)" />
    <rect
       style="fill:#000000;stroke-width:0.264583;stop-color:#000000"
       id="rect346"
       width="5"
       height="25"
       x="45"
       y="45"
       ry="2.5" />
    <rect
       style="fill:#000000;stroke-width:0.264583;stop-color:#000000"
       id="rect346-6"
       width="25"
       height="5"
       x="45"
       y="65"
       ry="2.5" />
    <rect
       style="fill:#000000;stroke-width:0.264583;stop-color:#000000"
       id="rect92"
       width="5"
       height="5"
       x="55"
       y="20"
       ry="2.5" />
    <rect
       style="fill:#000000;stroke-width:0.264583;stop-color:#000000"
       id="rect92-3"
       width="5"
       height="5"
       x="20"
       y="55"
       ry="2.5" />
  </g>
</svg>
